<?xml version="1.0" encoding="UTF-8" standalone="no"?>
<svg
   width="60"
   height="60"
   viewBox="0 0 60 60"
   fill="none"
   version="1.1"
   id="svg6"
   sodipodi:docname="Group 27.svg"
   xmlns:inkscape="http://www.inkscape.org/namespaces/inkscape"
   xmlns:sodipodi="http://sodipodi.sourceforge.net/DTD/sodipodi-0.dtd"
   xmlns="http://www.w3.org/2000/svg"
   xmlns:svg="http://www.w3.org/2000/svg">
  <defs
     id="defs10" />
  <sodipodi:namedview
     id="namedview8"
     pagecolor="#ffffff"
     bordercolor="#000000"
     borderopacity="0.25"
     inkscape:showpageshadow="2"
     inkscape:pageopacity="0.0"
     inkscape:pagecheckerboard="0"
     inkscape:deskcolor="#d1d1d1" />
  <path
     d="M20.2406 58.3529C25.4434 60.1532 31.0417 60.4851 36.4209 59.3122C41.8 58.1394 46.752 55.5071 50.7332 51.7044C54.7143 47.9016 57.5708 43.0755 58.9889 37.7557C60.4071 32.436 60.3321 26.8284 58.7722 21.5485L47.8669 24.7704C48.8348 28.0465 48.8813 31.5259 48.0014 34.8267C47.1214 38.1274 45.3491 41.1219 42.8788 43.4814C40.4086 45.841 37.336 47.4742 33.9984 48.202C30.6608 48.9297 27.1871 48.7238 23.9589 47.6067L20.2406 58.3529Z"
     fill="#E14D59"
     id="path2" />
  <path
     d="M59.9242 29.9621C59.9242 24.0362 58.167 18.2433 54.8747 13.3161C51.5824 8.38881 46.903 4.54849 41.4281 2.28073C35.9532 0.0129686 29.9289 -0.580381 24.1168 0.575714C18.3047 1.73181 12.966 4.58542 8.7757 8.7757C4.58542 12.966 1.73181 18.3047 0.575713 24.1168C-0.580381 29.9289 0.0129687 35.9533 2.28073 41.4281C4.54849 46.903 8.38881 51.5824 13.3161 54.8747C18.2433 58.167 24.0362 59.9242 29.9621 59.9242V48.5529C26.2852 48.5529 22.6909 47.4626 19.6336 45.4198C16.5764 43.377 14.1935 40.4735 12.7864 37.0765C11.3794 33.6795 11.0112 29.9415 11.7285 26.3352C12.4459 22.729 14.2165 19.4164 16.8164 16.8164C19.4164 14.2165 22.729 12.4459 26.3352 11.7285C29.9415 11.0112 33.6795 11.3794 37.0765 12.7865C40.4735 14.1935 43.377 16.5764 45.4198 19.6336C47.4626 22.6909 48.5529 26.2852 48.5529 29.9621H59.9242Z"
     fill="#FDC960"
     id="path4" />
</svg>
